HIERARCHY
ROOT pelvis
{
  OFFSET 0 100 0
  CHANNELS 6 Xposition Yposition Zposition Zrotation Xrotation Yrotation
  JOINT pelvis_right_femur
  {
    OFFSET -10.78128 -3.44521 -0.5502486
    CHANNELS 3 Zrotation Xrotation Yrotation
    JOINT right_femur_tibia
    {
      OFFSET -0.8047443 -44.0398 -0.1307829
      CHANNELS 3 Zrotation Xrotation Yrotation
      JOINT right_tibia_foot
      {
        OFFSET 3.006224 -47.83518 -5
        CHANNELS 3 Zrotation Xrotation Yrotation
        End Site
        {
          OFFSET 0 -5 15
        }
      }
    }
  }
  JOINT pelvis_left_femur
  {
    OFFSET 10.78128 -3.44521 -0.5502486
    CHANNELS 3 Zrotation Xrotation Yrotation
    JOINT left_femur_tibia
    {
      OFFSET 0.8047443 -44.0398 -0.1307829
      CHANNELS 3 Zrotation Xrotation Yrotation
      JOINT left_tibia_foot
      {
        OFFSET -4.370144 -48.10324 -4.275266
        CHANNELS 3 Zrotation Xrotation Yrotation
        End Site
        {
          OFFSET 0 -5 15
        }
      }
    }
  }
  JOINT pelvis_spine1
  {
    OFFSET 0 6.468898 -3.129235
    CHANNELS 3 Zrotation Xrotation Yrotation
    JOINT spine1
    {
      OFFSET 0 23.15396 4.99043
      CHANNELS 3 Zrotation Xrotation Yrotation
      JOINT spine2
      {
        OFFSET 0 20.79997 -5.064912
        CHANNELS 3 Zrotation Xrotation Yrotation
        JOINT neck
        {
          OFFSET 0 14.38658 9.616178
          CHANNELS 3 Zrotation Xrotation Yrotation
          End Site
          {
            OFFSET 0 20 0
          }
        }
      }
      JOINT right_manubrium
      {
        OFFSET -5.722621 16.35077 3.967754
        CHANNELS 3 Zrotation Xrotation Yrotation
        JOINT right_clavicle
        {
          OFFSET -13.16364 1.694482 -4.693211
          CHANNELS 3 Zrotation Xrotation Yrotation
          JOINT right_humerus
          {
            OFFSET -28.5034 -0.3100689 -2.792744
            CHANNELS 3 Zrotation Xrotation Yrotation
            JOINT right_radius
            {
              OFFSET -25.15693 0.02248979 -1.271978
              CHANNELS 3 Zrotation Xrotation Yrotation
              End Site
              {
                OFFSET -15 0 0
              }
            }
          }
        }
      }
      JOINT left_manubrium
      {
        OFFSET 5.722621 16.35077 3.967754
        CHANNELS 3 Zrotation Xrotation Yrotation
        JOINT left_clavicle
        {
          OFFSET 13.16364 1.694482 -4.693211
          CHANNELS 3 Zrotation Xrotation Yrotation
          JOINT left_humerus
          {
            OFFSET 29.39168 -1.063119 -2.237045
            CHANNELS 3 Zrotation Xrotation Yrotation
            JOINT left_radius
            {
              OFFSET 24.59957 -0.9528479 0.9047498
              CHANNELS 3 Zrotation Xrotation Yrotation
              End Site
              {
                OFFSET 15 -0 -0
              }
            }
          }
        }
      }
    }
  }
}
MOTION
Frames: 9
Frame Time: 0.0416666666667
1853.794 103.6641 1731.54 4.860776 0.8924784 95.11196 0.7126602 -28.48872 0.7961953 -0 28.78667 -0 -3.805883 -7.064002 -8.030264 -4.792146 17.33043 -12.99733 -0 9.559831 -0 -5.613917 -22.5867 12.10419 -3.097842 1.131972 0.8514756 2.062681 7.139431 -8.139386 1.830714 23.8503 5.735527 1.91215 -18.51739 7.775427 1.578116 -13.91336 9.492478 89.85781 26.12324 -21.22955 -0 0 8.840806 -13.7116 8.244817 7.563268 5.583577 -20.63822 -4.435926 -83.02447 31.31145 6.444631 0 0 -24.34977 -1.713833 12.65287 15.72248
1858.567 102.477 1731.443 3.777906 0.6615948 95.77262 1.309893 -30.59961 0.9133351 -0 23.27105 -0 -4.228986 -6.873611 -7.839413 -4.487102 18.71157 -13.6235 -0 10.8781 -0 -6.594226 -23.65461 11.89393 -2.929357 1.059809 0.9264797 2.062794 6.543334 -7.971435 2.209042 23.62914 5.716851 2.20218 -19.03266 8.103795 1.824979 -13.33429 9.226158 89.92152 27.37639 -21.87196 -0 0 8.417329 -12.9393 8.868428 6.475318 6.166554 -20.75023 -3.987146 -83.33892 31.98866 6.309089 0 0 -24.86242 -1.541357 13.73386 15.54609
1863.681 101.3714 1731.357 2.775147 0.3204236 96.38008 2.193465 -31.63354 1.255369 -0 19.3536 -0 -4.70207 -6.34001 -7.597662 -4.114282 19.6137 -13.85727 -0 13.6264 -0 -7.396206 -23.63188 11.5096 -2.638823 0.9842268 0.8930735 2.140726 6.113107 -7.834221 2.463054 23.35226 5.673018 2.422306 -19.63889 8.295258 2.18439 -12.77851 9.077419 89.94138 28.60379 -22.24385 -0 0 7.858492 -12.24034 9.333216 5.716857 6.373883 -20.58954 -3.594715 -83.76446 32.05346 6.492404 0 0 -24.57456 -1.07032 14.30873 15.00586
1869.223 100.5261 1731.256 1.995629 -0.1139602 96.93131 3.290624 -31.35567 1.767204 -0 17.14505 -0 -5.287976 -5.818202 -7.321563 -3.679789 19.9734 -13.64708 -0 17.92194 -0 -8.02748 -22.25165 10.90023 -2.194226 0.8692985 0.7535209 2.310512 5.913893 -7.772238 2.531809 23.06128 5.635688 2.552222 -20.22871 8.308645 2.601211 -12.27311 9.086809 89.95488 29.66116 -22.41543 -0 0 7.13111 -11.73791 9.677783 5.382428 6.175659 -20.23744 -3.325887 -84.18051 31.47632 6.854786 0 0 -23.69944 -0.3586006 14.30985 14.14054
1875.199 100.0759 1731.119 1.629458 -0.5750715 97.37619 4.456624 -29.56992 2.373419 -0 16.60295 -0 -5.97727 -5.63839 -7.054091 -3.228941 19.57329 -13.03516 -0 23.90662 -0 -8.535643 -19.48688 10.17764 -1.595674 0.6910544 0.6279473 2.514497 5.998918 -7.759673 2.422087 22.82562 5.617334 2.598871 -20.63873 8.141475 3.003163 -11.87303 9.275146 89.97472 30.37752 -22.43389 -0 0 6.324845 -11.54049 9.982284 5.437578 5.660896 -19.8285 -3.20398 -84.55033 30.39026 7.348752 0 0 -22.51846 0.4677439 13.85909 13.10892
1881.499 100.0989 1730.932 1.854342 -0.9452186 97.61503 5.504737 -26.28295 3.010306 -0 17.39406 -0 -6.680012 -6.022526 -6.858922 -2.832753 18.07857 -12.17574 -0 31.63129 -0 -8.963623 -15.71894 9.658613 -0.9256784 0.4913246 0.7250896 2.643752 6.377715 -7.696113 2.231725 22.73019 5.588173 2.604088 -20.68969 7.838403 3.344561 -11.63297 9.616984 89.94187 30.6735 -22.26177 -0 0 5.647234 -11.67041 10.32515 5.700504 5.038675 -19.50917 -3.180152 -84.92436 29.05447 7.972521 0 0 -21.24041 1.289057 13.26171 12.08081
1887.905 100.6173 1730.7 2.687871 -1.088495 97.53488 6.255298 -21.76766 3.635704 -0 18.76197 -0 -7.2669 -6.964131 -6.728955 -2.573761 15.09616 -11.27016 -0 40.8137 -0 -9.290204 -11.74029 9.722407 -0.3759319 0.3915566 1.254068 2.607681 7.007937 -7.459472 2.099269 22.81599 5.492707 2.649922 -20.30372 7.453783 3.660058 -11.61707 10.04435 89.68745 30.68085 -21.753 -0 0 5.379467 -12.02667 10.71323 5.9579 4.551818 -19.37875 -3.147576 -85.43334 27.74031 8.781105 0 0 -19.92137 2.031745 12.80534 11.16454
1894.159 101.584 1730.432 3.868303 -0.9072595 97.09045 6.556846 -16.4454 4.159755 -0 19.60549 -0 -7.634173 -8.219623 -6.491332 -2.506999 10.28919 -10.44937 -0 50.43604 -0 -9.363113 -8.463937 10.50868 -0.1779589 0.5161441 2.29867 2.394989 7.804267 -6.987593 2.101395 23.03841 5.301899 2.811858 -19.62325 7.017543 4.016778 -11.94235 10.48342 88.98858 30.67787 -20.70685 -0 0 5.794429 -12.49221 11.06856 6.186717 4.32499 -19.42704 -3.02209 -86.23393 26.63108 9.941942 0 0 -18.56305 2.622114 12.52948 10.4668
1900.078 102.8308 1730.131 4.947521 -0.3914327 96.3727 6.329687 -10.7145 4.396417 -0 18.93099 -0 -7.755078 -9.490732 -5.900191 -2.566993 3.664302 -9.70248 -0 58.39307 -0 -8.946498 -6.485831 11.77107 -0.4407321 0.8668748 3.712146 2.060677 8.63326 -6.319595 2.197863 23.30706 5.04297 3.061254 -18.97106 6.560448 4.359648 -12.75333 10.88652 87.73053 30.82495 -18.97516 -0 0 7.035245 -13.1281 11.32739 6.647991 4.293993 -19.51821 -2.813473 -87.36681 25.80482 11.63256 0 0 -17.28407 2.941697 12.27261 10.14757
